<?xml version="1.0" standalone="no"?>
<!DOCTYPE svg PUBLIC "-//W3C//DTD SVG 1.1//EN" "http://www.w3.org/Graphics/SVG/1.1/DTD/svg11.dtd" >
<svg>
<metadata>
Created by FontForge 20110222 at Mon Sep 22 20:41:58 2014
 By Orthosie Webhosting
Copyright (c) 2010 by Svetoslav Simov. All rights reserved.
</metadata>
<defs>
<font id="CodeProLightDemoRegular" horiz-adv-x="628" >
  <font-face 
    font-family="CodeProLightDemoRegular"
    font-weight="300"
    font-stretch="normal"
    units-per-em="1000"
    panose-1="2 0 5 6 3 0 0 2 0 4"
    ascent="700"
    descent="-300"
    x-height="699"
    cap-height="699"
    bbox="11 -202 901 838"
    underline-thickness="0"
    underline-position="0"
    unicode-range="U+0020-FB02"
  />
<missing-glyph horiz-adv-x="523" 
d="M33 0v663h456v-663h-456zM470 632l-200 -299l200 -300v599zM457 18l-196 297l-195 -297h391zM261 351l196 294h-391zM252 333l-200 299v-599z" />
    <glyph glyph-name="f_i" unicode="fi" horiz-adv-x="711" 
d="M82 342v-342h-15v699h377v-15h-362v-326h320v-16h-320zM360 0v14h149v685h164v-14h-149v-671h149v-14h-313z" />
    <glyph glyph-name="f_l" unicode="fl" horiz-adv-x="934" 
d="M82 342v-342h-15v699h377v-15h-362v-326h320v-16h-320zM525 699v-683h376v-16h-392v699h16z" />
    <glyph glyph-name=".notdef" horiz-adv-x="523" 
d="M33 0v663h456v-663h-456zM470 632l-200 -299l200 -300v599zM457 18l-196 297l-195 -297h391zM261 351l196 294h-391zM252 333l-200 299v-599z" />
    <glyph glyph-name=".null" horiz-adv-x="0" 
 />
    <glyph glyph-name="nonmarkingreturn" horiz-adv-x="333" 
 />
    <glyph glyph-name="space" unicode=" " horiz-adv-x="302" 
 />
    <glyph glyph-name="exclam" unicode="!" horiz-adv-x="142" 
d="M64 697h16v-608h-16v608zM72 26q16 0 16 -16q0 -6 -4.5 -10.5t-11.5 -4.5t-11.5 4.5t-4.5 10.5q0 16 16 16z" />
    <glyph glyph-name="comma" unicode="," horiz-adv-x="145" 
d="M30 -95h-16l48 121h27z" />
    <glyph glyph-name="period" unicode="." horiz-adv-x="150" 
d="M78 35q20 0 20 -20q0 -7 -5.5 -12.5t-14.5 -5.5q-7 0 -12.5 5.5t-5.5 12.5q0 20 18 20z" />
    <glyph glyph-name="zero" unicode="0" horiz-adv-x="592" 
d="M296 689q-77 0 -134 -50t-82.5 -125t-25.5 -162.5t25.5 -162.5t82.5 -125t134 -50t134 50t82.5 125t25.5 162.5t-25.5 162.5t-82.5 125t-134 50zM296 -2q-71 0 -126 39t-84 101.5t-42 138t0 150.5t42 137.5t84 101.5t126 39t126 -39t84 -101.5t42 -137.5t0 -150.5
t-42 -138t-84 -101.5t-126 -39z" />
    <glyph glyph-name="one" unicode="1" horiz-adv-x="277" 
d="M179 659l-149 -206l-11 8l171 239h16v-700h-15v654l3 28h-1z" />
    <glyph glyph-name="two" unicode="2" horiz-adv-x="549" 
d="M56 477h-14q0 92 61.5 158.5t171.5 66.5t173 -60t61 -146q-1 -107 -97 -187l-348 -293h439v-15h-461v15l358 304q90 78 93 173q2 80 -56.5 137t-161.5 57t-161 -62.5t-58 -147.5z" />
    <glyph glyph-name="three" unicode="3" horiz-adv-x="546" 
d="M263 8q-94 0 -146.5 42t-62.5 106l-15 -2q11 -70 67 -115.5t157 -45.5q121 0 186 62t57 143q-5 55 -47 99t-113 62l-32 2v2l32 4q60 20 92.5 65t32.5 99q0 52 -27 92.5t-68.5 61t-92 25.5t-95.5 -7t-80.5 -43.5t-46.5 -77.5l15 -3q10 42 42.5 70.5t74.5 39t88.5 6.5
t85 -23t64 -55.5t25.5 -84.5q0 -67 -50 -115.5t-143 -48.5h-49v-15h1h1h1h1h2h1h2h2h2h2h3h2h3h4h3h4h5h10q62 0 111 -19t74.5 -49.5t37 -67t0 -73.5t-37 -67.5t-74.5 -49.5t-111 -19z" />
    <glyph glyph-name="four" unicode="4" horiz-adv-x="544" 
d="M30 196l398 506h16v-506h65v-15h-65v-181h-15v181h-399v15zM49 196h380v460l3 28h-1l-14 -23z" />
    <glyph glyph-name="five" unicode="5" horiz-adv-x="548" 
d="M461 699v-15h-391v-278q73 35 146.5 43t154.5 -20q65 -27 100 -81.5t36 -120.5q1 -92 -63 -159.5t-179 -67.5q-88 0 -145.5 41t-80.5 107l14 5q22 -62 75.5 -99.5t136.5 -37.5q108 0 167.5 62.5t58.5 148.5q0 59 -31.5 110.5t-90.5 76.5q-124 53 -296 -23l-18 9v284v15
h15h391z" />
    <glyph glyph-name="six" unicode="6" horiz-adv-x="557" 
d="M278 434q-72 0 -125 -31t-77 -77.5t-24 -100.5t24 -100.5t77 -77.5t125 -31t125 31t77 77.5t24 100.5t-24 100.5t-77 77.5t-125 31zM76 355l245 346h19l-182 -257l-39 -46l1 -1l36 25q53 28 122 28q66 0 118 -25t79 -64.5t39.5 -87.5t0 -96t-39.5 -87.5t-79 -64.5
t-118 -25q-81 0 -139.5 37t-82 91t-19 115.5t38.5 111.5z" />
    <glyph glyph-name="seven" unicode="7" horiz-adv-x="534" 
d="M31 699h469v-16l-374 -683h-19l374 684h-450v15z" />
    <glyph glyph-name="eight" unicode="8" horiz-adv-x="558" 
d="M279 7q55 0 99 15t71 40t42 56.5t15 65t-15 65t-42 56.5t-71 40t-99 15q-72 0 -125 -26t-77 -65.5t-24 -85t24 -85t77 -65.5t125 -26zM279 700q-77 0 -135 -42t-58 -120q0 -66 50.5 -114.5t142.5 -48.5t142 48.5t50 115.5q0 78 -58 119.5t-134 41.5zM362 374l-32 -4
l-1 -2l33 -2q57 -14 95.5 -48.5t53 -75.5t7.5 -85.5t-34.5 -81t-81 -60t-123.5 -23.5t-123 23.5t-80.5 60t-35 81t6.5 85.5t52.5 75t94.5 48l43 3v2l-42 4q-60 20 -92 65.5t-32 99.5q1 84 63 130t145 46q98 0 153 -52.5t55 -124.5q0 -54 -32.5 -99.5t-92.5 -64.5z" />
    <glyph glyph-name="nine" unicode="9" horiz-adv-x="560" 
d="M283 267q72 0 125.5 31t77.5 77.5t24 101t-24 101t-77.5 77.5t-125.5 31t-125 -31t-77 -77.5t-24 -101t24 -101t77 -77.5t125 -31zM485 347l-245 -347h-18l181 257l39 47h-1l-36 -25q-53 -28 -122 -28q-66 0 -118 25t-79 64.5t-39.5 87.5t0 96t39.5 88t79 65t118 25
q81 0 139.5 -37t82 -91t19 -116t-38.5 -111z" />
    <glyph glyph-name="colon" unicode=":" horiz-adv-x="160" 
d="M78 35q20 0 20 -20q0 -7 -5.5 -12.5t-14.5 -5.5q-7 0 -12.5 5.5t-5.5 12.5q0 20 18 20zM78 362q20 0 20 -20q0 -7 -5.5 -12.5t-14.5 -5.5q-7 0 -12.5 5.5t-5.5 12.5q0 20 18 20z" />
    <glyph glyph-name="semicolon" unicode=";" horiz-adv-x="160" 
d="M78 362q20 0 20 -20q0 -7 -5.5 -12.5t-14.5 -5.5q-7 0 -12.5 5.5t-5.5 12.5q0 20 18 20zM21 -95h16l59 121h-28z" />
    <glyph glyph-name="question" unicode="?" horiz-adv-x="521" 
d="M249 203l1 -114h-16v115q0 25 8 44.5t27.5 35.5t32 23.5t42.5 22.5q35 19 55.5 34t39.5 48.5t20 77.5q2 80 -56.5 137t-161.5 57q-72 0 -122 -31.5t-75 -83.5q-3 1 -7.5 3.5t-5.5 3.5q26 56 79.5 89.5t130.5 33.5q109 0 172.5 -61t61.5 -147q-1 -38 -11.5 -67.5
t-32.5 -50.5t-39 -32t-46 -27q-28 -15 -38 -21t-28.5 -20.5t-24.5 -31t-6 -38.5zM242 26q6 0 10.5 -4.5t4.5 -11.5q0 -6 -4.5 -10.5t-10.5 -4.5q-7 0 -11.5 4.5t-4.5 10.5q0 16 16 16z" />
    <glyph glyph-name="A" unicode="A" 
d="M313 689l-170 -439h341zM586 0l-96 235h-354l-95 -235h-17l281 710h17l281 -710h-17z" />
    <glyph glyph-name="B" unicode="B" horiz-adv-x="602" 
d="M83 683v-301h267q97 0 133 89q24 62 0 123q-36 89 -133 89h-267zM350 699q54 0 91.5 -27t55.5 -72q25 -67 0 -135q-25 -63 -82 -87q49 -9 84 -40.5t49 -73.5t11 -88.5t-23 -85.5t-61.5 -64.5t-96.5 -25.5h-311v699h283zM83 366v-351h295q53 0 92.5 26t57 65t17.5 84.5
t-17.5 84.5t-57 65t-92.5 26h-295z" />
    <glyph glyph-name="C" unicode="C" horiz-adv-x="750" 
d="M703 486h-17q-23 54 -66 98q-95 98 -231 98t-231 -98q-96 -99 -96 -235q0 -137 96 -235q96 -99 231 -99t231 99q44 45 66 97h17q-25 -61 -72 -109q-100 -103 -242 -103t-242 103t-100 247q0 143 100 246t242 103t242 -103q47 -48 72 -109z" />
    <glyph glyph-name="D" unicode="D" horiz-adv-x="691" 
d="M81 15h221q79 0 143.5 28.5t104 76t61 107.5t21.5 122.5t-21.5 122.5t-61 107.5t-104 76t-143.5 28.5h-221v-669zM66 699h236q110 0 190.5 -52t116.5 -129.5t36 -168t-36 -168t-116.5 -129.5t-190.5 -52h-236v699z" />
    <glyph glyph-name="E" unicode="E" horiz-adv-x="501" 
d="M83 342v-327h372v-15h-386h-2v699h386v-15h-370v-326h362v-16h-362z" />
    <glyph glyph-name="F" unicode="F" horiz-adv-x="481" 
d="M82 342v-342h-15v699h377v-15h-362v-326h320v-16h-320z" />
    <glyph glyph-name="G" unicode="G" horiz-adv-x="765" 
d="M704 490h-17q-35 92 -117 146t-180 54q-134 0 -232 -101q-95 -102 -95 -240q0 -140 95 -240q96 -101 232 -101q107 0 201.5 75t113.5 184h-309v16h329q-3 -34 -17 -70q-34 -94 -128 -158t-190 -64q-142 0 -243 106q-100 105 -100 252q0 145 100 252q100 105 243 105
q105 0 192.5 -59t121.5 -157z" />
    <glyph glyph-name="H" unicode="H" horiz-adv-x="603" 
d="M82 699v-337h439v337h16v-699h-16v347h-439v-347h-15v699h15z" />
    <glyph glyph-name="I" unicode="I" horiz-adv-x="381" 
d="M347 699v-14h-149v-670h149v-15h-313v15h149v670h-149v14h313z" />
    <glyph glyph-name="J" unicode="J" horiz-adv-x="435" 
d="M371 699v-403q0 -146 -95 -221t-246 -75v16q145 0 235.5 70.5t90.5 209.5v389h-216v14h231z" />
    <glyph glyph-name="K" unicode="K" horiz-adv-x="517" 
d="M67 699h15v-699h-15v699zM105 342v16l348 341h20l-354 -348l397 -351h-23z" />
    <glyph glyph-name="L" unicode="L" horiz-adv-x="495" 
d="M83 699v-683h376v-16h-392v699h16z" />
    <glyph glyph-name="M" unicode="M" horiz-adv-x="747" 
d="M82 677v-677h-15v700h16l290 -429l291 429h16v-700h-15v677l-285 -424h-13z" />
    <glyph glyph-name="N" unicode="N" 
d="M83 0h-16v701l14 -1l465 -672v672h15v-700h-16l-462 668v-668z" />
    <glyph glyph-name="O" unicode="O" horiz-adv-x="798" 
d="M739 350q0 141 -99 242q-100 102 -242 102q-141 0 -241 -102t-100 -242t100 -242t241 -102q142 0 242 102q99 101 99 242zM41 350q0 147 105 254q103 106 252 106t253 -106q105 -107 105 -254t-105 -254q-104 -106 -253 -106t-252 106q-105 107 -105 254z" />
    <glyph glyph-name="P" unicode="P" horiz-adv-x="561" 
d="M67 692v8h8h234q67 0 116 -32t71 -80.5t22 -104.5t-22 -104.5t-71 -80.5t-116 -32h-226v-266h-16v692zM83 281h226q62 0 107.5 30t66 74.5t20.5 97t-20.5 97t-66 74.5t-107.5 30h-226v-403z" />
    <glyph glyph-name="Q" unicode="Q" horiz-adv-x="806" 
d="M744 350q0 140 -100 242t-242 102q-141 0 -241 -102t-100 -242t100 -242t241 -102q131 0 228 89l-211 187h24l199 -176l2 2q100 102 100 242zM655 96l108 -96h-26l-95 84q-100 -94 -240 -94q-149 0 -252 106q-105 107 -105 254t105 254q103 106 252 106t253 -106
q105 -107 105 -254t-105 -254z" />
    <glyph glyph-name="R" unicode="R" horiz-adv-x="567" 
d="M82 684v-684h-15v692v8h8h234q51 0 92 -17.5t66 -46.5t38.5 -65.5t13.5 -75t-13.5 -75t-38.5 -65.5t-66 -46.5t-92 -17.5h-113l322 -291h-23l-322 291v15h136q62 0 107.5 28t66 70t20.5 91t-20.5 91t-66 70t-107.5 28h-227z" />
    <glyph glyph-name="S" unicode="S" horiz-adv-x="589" 
d="M505 545l-1 8q-9 44 -38 76q-62 66 -175 64q-54 -1 -103.5 -21t-79.5 -59q-36 -44 -31 -107q4 -50 28.5 -80.5t62 -42.5t82.5 -18t91 -10.5t86 -15t69.5 -38t39.5 -72.5q12 -53 -5.5 -99t-54 -75t-84 -45.5t-98.5 -16.5q-85 0 -157.5 46t-80.5 125l-1 7l16 2l1 -7
q8 -74 76 -116t147 -42q101 0 173 60t52 158q-9 42 -38.5 67t-69 34t-86 13.5t-91 11t-82.5 20t-62.5 47t-28.5 86.5q-6 66 33 117q50 65 145 82.5t179 -22.5t100 -126l1 -8z" />
    <glyph glyph-name="T" unicode="T" horiz-adv-x="561" 
d="M286 -3h-15v687h-242v16h499v-16h-242v-687z" />
    <glyph glyph-name="U" unicode="U" horiz-adv-x="629" 
d="M315 -8q-95 0 -170 53t-75 145v509h16v-510q0 -85 70 -133t159 -48t159 48.5t70 133.5v509h16v-510q0 -61 -38 -107.5t-92.5 -68t-114.5 -21.5z" />
    <glyph glyph-name="V" unicode="V" horiz-adv-x="630" 
d="M315 9l273 690h17l-281 -710h-17l-281 710h17z" />
    <glyph glyph-name="W" unicode="W" horiz-adv-x="891" 
d="M617 -7l-173 489l-172 -489h-14l-234 706h16l225 -680l168 476h22l168 -476l226 680h16l-234 -706h-14z" />
    <glyph glyph-name="X" unicode="X" horiz-adv-x="582" 
d="M30 699h19l243 -336l244 336h18l-253 -350l253 -349h-18l-244 336l-243 -336h-19l253 349z" />
    <glyph glyph-name="Y" unicode="Y" horiz-adv-x="579" 
d="M24 699h19l246 -394l246 394h19l-257 -410v-289h-16v289z" />
    <glyph glyph-name="Z" unicode="Z" horiz-adv-x="593" 
d="M35 0v28l494 652h-479v20h501v-29l-494 -650h502v-21h-524z" />
    <glyph glyph-name="grave" unicode="`" horiz-adv-x="286" 
d="M179 726h-19l-66 75h27z" />
    <glyph glyph-name="a" unicode="a" 
d="M313 689l-170 -439h341zM586 0l-96 235h-354l-95 -235h-17l281 710h17l281 -710h-17z" />
    <glyph glyph-name="b" unicode="b" horiz-adv-x="602" 
d="M83 683v-301h267q97 0 133 89q24 62 0 123q-36 89 -133 89h-267zM350 699q54 0 91.5 -27t55.5 -72q25 -67 0 -135q-25 -63 -82 -87q49 -9 84 -40.5t49 -73.5t11 -88.5t-23 -85.5t-61.5 -64.5t-96.5 -25.5h-311v699h283zM83 366v-351h295q53 0 92.5 26t57 65t17.5 84.5
t-17.5 84.5t-57 65t-92.5 26h-295z" />
    <glyph glyph-name="c" unicode="c" horiz-adv-x="752" 
d="M703 486h-17q-23 54 -66 98q-95 98 -231 98t-231 -98q-96 -99 -96 -235q0 -137 96 -235q96 -99 231 -99t231 99q44 45 66 97h17q-25 -61 -72 -109q-100 -103 -242 -103t-242 103t-100 247q0 143 100 246t242 103t242 -103q47 -48 72 -109z" />
    <glyph glyph-name="d" unicode="d" horiz-adv-x="691" 
d="M81 15h221q79 0 143.5 28.5t104 76t61 107.5t21.5 122.5t-21.5 122.5t-61 107.5t-104 76t-143.5 28.5h-221v-669zM66 699h236q110 0 190.5 -52t116.5 -129.5t36 -168t-36 -168t-116.5 -129.5t-190.5 -52h-236v699z" />
    <glyph glyph-name="e" unicode="e" horiz-adv-x="501" 
d="M83 342v-327h372v-15h-386h-2v699h386v-15h-370v-326h362v-16h-362z" />
    <glyph glyph-name="f" unicode="f" horiz-adv-x="481" 
d="M82 342v-342h-15v699h377v-15h-362v-326h320v-16h-320z" />
    <glyph glyph-name="g" unicode="g" horiz-adv-x="761" 
d="M704 490h-17q-35 92 -117 146t-180 54q-134 0 -232 -101q-95 -102 -95 -240q0 -140 95 -240q96 -101 232 -101q107 0 201.5 75t113.5 184h-309v16h329q-3 -34 -17 -70q-34 -94 -128 -158t-190 -64q-142 0 -243 106q-100 105 -100 252q0 145 100 252q100 105 243 105
q105 0 192.5 -59t121.5 -157z" />
    <glyph glyph-name="h" unicode="h" horiz-adv-x="603" 
d="M82 699v-337h439v337h16v-699h-16v347h-439v-347h-15v699h15z" />
    <glyph glyph-name="i" unicode="i" horiz-adv-x="400" 
d="M357 699v-14h-149v-670h149v-15h-313v15h149v670h-149v14h313z" />
    <glyph glyph-name="j" unicode="j" horiz-adv-x="434" 
d="M368 699v-403q0 -146 -95 -221t-246 -75v16q145 0 235.5 70.5t90.5 209.5v389h-216v14h231z" />
    <glyph glyph-name="k" unicode="k" horiz-adv-x="517" 
d="M67 699h15v-699h-15v699zM105 342v16l365 341h20l-371 -348l388 -351h-23z" />
    <glyph glyph-name="l" unicode="l" horiz-adv-x="495" 
d="M83 699v-683h376v-16h-392v699h16z" />
    <glyph glyph-name="m" unicode="m" horiz-adv-x="747" 
d="M82 677v-677h-15v700h16l290 -429l291 429h16v-700h-15v677l-285 -424h-13z" />
    <glyph glyph-name="n" unicode="n" 
d="M83 0h-16v701l14 -1l465 -672v672h15v-700h-16l-462 668v-668z" />
    <glyph glyph-name="o" unicode="o" horiz-adv-x="810" 
d="M747 350q0 141 -99 242q-100 102 -242 102q-141 0 -241 -102t-100 -242t100 -242t241 -102q142 0 242 102q99 101 99 242zM49 350q0 147 105 254q103 106 252 106t253 -106q105 -107 105 -254t-105 -254q-104 -106 -253 -106t-252 106q-105 107 -105 254z" />
    <glyph glyph-name="p" unicode="p" horiz-adv-x="565" 
d="M67 692v8h8h234q67 0 116 -32t71 -80.5t22 -104.5t-22 -104.5t-71 -80.5t-116 -32h-226v-266h-16v692zM83 281h226q62 0 107.5 30t66 74.5t20.5 97t-20.5 97t-66 74.5t-107.5 30h-226v-403z" />
    <glyph glyph-name="q" unicode="q" horiz-adv-x="806" 
d="M740 350q0 142 -100.5 243t-241.5 101t-241 -101.5t-100 -242.5t100 -242.5t241 -101.5q131 0 228 89l-211 187h24l199 -176l2 2q100 102 100 242zM651 96l108 -96h-26l-95 84q-100 -94 -240 -94q-147 0 -252 106t-105 254t105 254t252 106q148 0 254 -105.5t106 -254.5
q0 -145 -107 -254z" />
    <glyph glyph-name="r" unicode="r" horiz-adv-x="569" 
d="M82 684v-684h-15v692v8h8h234q51 0 92 -17.5t66 -46.5t38.5 -65.5t13.5 -75t-13.5 -75t-38.5 -65.5t-66 -46.5t-92 -17.5h-113l322 -291h-23l-322 291v15h136q62 0 107.5 28t66 70t20.5 91t-20.5 91t-66 70t-107.5 28h-227z" />
    <glyph glyph-name="s" unicode="s" horiz-adv-x="584" 
d="M497 545l-1 8q-9 44 -38 76q-62 66 -175 64q-54 -1 -103.5 -21t-79.5 -59q-36 -44 -31 -107q4 -50 28.5 -80.5t62 -42.5t82 -18t90.5 -10.5t86 -15t69.5 -38t39.5 -72.5q12 -53 -5 -99t-53.5 -75t-84 -45.5t-98.5 -16.5q-85 0 -157.5 46t-80.5 125l-1 7l16 2l1 -7
q8 -74 76 -116t147 -42q101 0 173 60t52 158q-9 42 -38.5 67t-69 34t-86 13.5t-91 11t-82.5 20t-62.5 47t-28.5 86.5q-6 66 33 117q50 65 145 82.5t179 -22.5t100 -126l1 -8z" />
    <glyph glyph-name="t" unicode="t" horiz-adv-x="561" 
d="M286 0h-15v684h-242v16h499v-16h-242v-684z" />
    <glyph glyph-name="u" unicode="u" horiz-adv-x="622" 
d="M311 -8q-95 0 -170 53t-75 145v509h16v-510q0 -85 70 -133t159 -48t159 48.5t70 133.5v509h16v-510q0 -61 -38 -107.5t-92.5 -68t-114.5 -21.5z" />
    <glyph glyph-name="v" unicode="v" horiz-adv-x="630" 
d="M315 9l273 690h17l-281 -710h-17l-281 710h17z" />
    <glyph glyph-name="w" unicode="w" horiz-adv-x="891" 
d="M617 -7l-173 489l-172 -489h-14l-234 706h16l225 -680l168 476h22l168 -476l226 680h16l-234 -706h-14z" />
    <glyph glyph-name="x" unicode="x" horiz-adv-x="582" 
d="M30 699h19l243 -336l244 336h18l-253 -350l253 -349h-18l-244 336l-243 -336h-19l253 349z" />
    <glyph glyph-name="y" unicode="y" horiz-adv-x="579" 
d="M24 699h19l246 -394l246 394h19l-257 -410v-289h-16v289z" />
    <glyph glyph-name="z" unicode="z" horiz-adv-x="593" 
d="M35 0v28l494 652h-479v20h501v-29l-494 -650h502v-21h-524z" />
    <glyph glyph-name="uni00A0" unicode="&#xa0;" horiz-adv-x="200" 
 />
    <glyph glyph-name="exclamdown" unicode="&#xa1;" horiz-adv-x="148" 
d="M64 -5h16v608h-16v-608zM72 666q-16 0 -16 16q0 6 4.5 10.5t11.5 4.5t11.5 -4.5t4.5 -10.5q0 -16 -16 -16z" />
    <glyph glyph-name="yen" unicode="&#xa5;" horiz-adv-x="579" 
d="M173 225v15h108v47h-108v16h99l-248 396h19l246 -394l246 394h19l-248 -396h112v-16h-121v-47h121v-15h-121v-225h-16v225h-108z" />
    <glyph glyph-name="dieresis" unicode="&#xa8;" horiz-adv-x="347" 
d="M113 784q20 0 20 -20q0 -7 -5.5 -12.5t-14.5 -5.5q-7 0 -12.5 5.5t-5.5 12.5q0 20 18 20zM234 784q20 0 20 -20q0 -7 -5.5 -12.5t-14.5 -5.5q-7 0 -12.5 5.5t-5.5 12.5q0 20 18 20z" />
    <glyph glyph-name="acute" unicode="&#xb4;" horiz-adv-x="286" 
d="M118 722h-19l58 75h27z" />
    <glyph glyph-name="periodcentered" unicode="&#xb7;" horiz-adv-x="205" 
d="M100 349q20 0 20 -20q0 -7 -5.5 -12.5t-14.5 -5.5q-7 0 -12.5 5.5t-5.5 12.5q0 20 18 20z" />
    <glyph glyph-name="questiondown" unicode="&#xbf;" horiz-adv-x="526" 
d="M273 605l1 -114q0 -22 -6 -38.5t-24.5 -31t-28.5 -20.5t-38 -21q-29 -16 -46 -27t-39 -32t-32.5 -50.5t-11.5 -67.5q-2 -86 61.5 -147t172.5 -61q77 0 130.5 33.5t79.5 89.5q-1 1 -5.5 3.5t-7.5 3.5q-25 -52 -75 -83.5t-122 -31.5q-103 0 -161.5 57t-56.5 137
q1 44 20 77.5t39.5 48.5t55.5 34q30 15 42.5 22.5t32 23.5t27.5 35.5t8 44.5v115h-16zM281 668q-6 0 -10.5 4.5t-4.5 11.5q0 6 4.5 10.5t10.5 4.5q7 0 11.5 -4.5t4.5 -10.5q0 -16 -16 -16z" />
    <glyph glyph-name="Agrave" unicode="&#xc0;" 
d="M313 689l-170 -439h341zM586 0l-96 235h-354l-95 -235h-17l281 710h17l281 -710h-17zM322 735h-19l-66 75h27z" />
    <glyph glyph-name="Aacute" unicode="&#xc1;" 
d="M313 689l-170 -439h341zM586 0l-96 235h-354l-95 -235h-17l281 710h17l281 -710h-17zM323 735h-19l58 75h27z" />
    <glyph glyph-name="Acircumflex" unicode="&#xc2;" 
d="M313 689l-170 -439h341zM586 0l-96 235h-354l-95 -235h-17l281 710h17l281 -710h-17zM258 733h-16l58 72h27l58 -72h-16l-55 60z" />
    <glyph glyph-name="Atilde" unicode="&#xc3;" 
d="M313 689l-170 -439h341zM586 0l-96 235h-354l-95 -235h-17l281 710h17l281 -710h-17zM240 737l-12 3q7 30 30 39q35 14 67 -20q18 -19 43 -11q21 9 25 29l11 -3q-7 -30 -32 -39q-31 -13 -57 14q-27 28 -54 17q-17 -7 -21 -29z" />
    <glyph glyph-name="Adieresis" unicode="&#xc4;" 
d="M313 689l-170 -439h341zM586 0l-96 235h-354l-95 -235h-17l281 710h17l281 -710h-17zM252 785q20 0 20 -20q0 -7 -5.5 -12.5t-14.5 -5.5q-7 0 -12.5 5.5t-5.5 12.5q0 20 18 20zM373 785q20 0 20 -20q0 -7 -5.5 -12.5t-14.5 -5.5q-7 0 -12.5 5.5t-5.5 12.5q0 20 18 20z
" />
    <glyph glyph-name="Aring" unicode="&#xc5;" 
d="M313 689l-170 -439h341zM586 0l-96 235h-354l-95 -235h-17l281 710h17l281 -710h-17zM262 750q0 21 14.5 36t35.5 15t36 -15t15 -36q0 -22 -15 -36.5t-37 -14.5q-20 0 -34.5 15t-14.5 36zM280 750q0 -14 9.5 -23.5t22.5 -9.5q14 0 23.5 9.5t9.5 23.5t-9.5 23.5t-23.5 9.5
q-13 0 -22.5 -9.5t-9.5 -23.5z" />
    <glyph glyph-name="AE" unicode="&#xc6;" horiz-adv-x="868" 
d="M467 285v-270h372v-15h-388v285h-249l-161 -285h-17l392 700h421v-15h-370v-385h362v-15h-362zM426 685l-216 -385h241v385h-25z" />
    <glyph glyph-name="Ccedilla" unicode="&#xc7;" horiz-adv-x="739" 
d="M701 486h-17q-23 54 -66 98q-95 98 -231 98t-231 -98q-96 -99 -96 -235q0 -137 96 -235q96 -99 231 -99t231 99q44 45 66 97h17q-25 -61 -72 -109q-98 -102 -239 -103l-23 -50q33 -3 56 -17q30 -18 36 -46q2 -8 2 -12q0 -5 -2 -13q-5 -27 -36 -45q-30 -18 -67 -18
q-21 0 -43 8q-44 17 -51 51l14 3q3 -8 4 -10q8 -17 31 -27t45 -10q35 0 60 15t29 36q1 3 1 10q0 6 -1 9q-4 21 -29 36q-23 13 -69 19l28 61q-136 5 -230 103q-100 103 -100 247q0 143 100 246t242 103t242 -103q47 -48 72 -109z" />
    <glyph glyph-name="Egrave" unicode="&#xc8;" horiz-adv-x="480" 
d="M83 15v327h362v16h-362v326h370v15h-386v-699h2h386v15h-372zM291 736h-19l-66 75h27z" />
    <glyph glyph-name="Eacute" unicode="&#xc9;" horiz-adv-x="480" 
d="M83 342v-327h372v-15h-386h-2v699h386v-15h-370v-326h362v-16h-362zM257 734h-19l58 75h27z" />
    <glyph glyph-name="Ecircumflex" unicode="&#xca;" horiz-adv-x="480" 
d="M83 342v-327h372v-15h-386h-2v699h386v-15h-370v-326h362v-16h-362zM216 731h-16l58 72h27l58 -72h-16l-55 60z" />
    <glyph glyph-name="Edieresis" unicode="&#xcb;" horiz-adv-x="480" 
d="M83 15v327h362v16h-362v326h370v15h-386v-699h2h386v15h-372zM207 782q20 0 20 -20q0 -7 -5.5 -12.5t-14.5 -5.5q-7 0 -12.5 5.5t-5.5 12.5q0 20 18 20zM328 782q20 0 20 -20q0 -7 -5.5 -12.5t-14.5 -5.5q-7 0 -12.5 5.5t-5.5 12.5q0 20 18 20z" />
    <glyph glyph-name="Igrave" unicode="&#xcc;" horiz-adv-x="381" 
d="M347 685v14h-313v-14h149v-670h-149v-15h313v15h-149v670h149zM202 736h-19l-66 75h27z" />
    <glyph glyph-name="Iacute" unicode="&#xcd;" horiz-adv-x="381" 
d="M347 699v-14h-149v-670h149v-15h-313v15h149v670h-149v14h313zM199 735h-19l58 75h27z" />
    <glyph glyph-name="Icircumflex" unicode="&#xce;" horiz-adv-x="381" 
d="M347 699v-14h-149v-670h149v-15h-313v15h149v670h-149v14h313zM135 733h-16l58 72h27l58 -72h-16l-55 60z" />
    <glyph glyph-name="Idieresis" unicode="&#xcf;" horiz-adv-x="381" 
d="M347 685v14h-313v-14h149v-670h-149v-15h313v15h-149v670h149zM130 784q20 0 20 -20q0 -7 -5.5 -12.5t-14.5 -5.5q-7 0 -12.5 5.5t-5.5 12.5q0 20 18 20zM251 784q20 0 20 -20q0 -7 -5.5 -12.5t-14.5 -5.5q-7 0 -12.5 5.5t-5.5 12.5q0 20 18 20z" />
    <glyph glyph-name="Ntilde" unicode="&#xd1;" 
d="M83 0h-16v701l14 -1l465 -672v672h15v-700h-16l-462 668v-668zM246 742l-12 3q7 30 30 39q35 14 67 -20q18 -19 43 -11q21 9 25 29l11 -3q-7 -30 -32 -39q-31 -13 -57 14q-27 28 -54 17q-17 -7 -21 -29z" />
    <glyph glyph-name="Ograve" unicode="&#xd2;" horiz-adv-x="792" 
d="M737 350q0 -141 -99 -242q-100 -102 -242 -102q-141 0 -241 102t-100 242t100 242t241 102q142 0 242 -102q99 -101 99 -242zM39 350q0 -147 105 -254q103 -106 252 -106t253 106q105 107 105 254t-105 254q-104 106 -253 106t-252 -106q-105 -107 -105 -254zM410 743
h-19l-66 75h27z" />
    <glyph glyph-name="Oacute" unicode="&#xd3;" horiz-adv-x="792" 
d="M737 350q0 141 -99 242q-100 102 -242 102q-141 0 -241 -102t-100 -242t100 -242t241 -102q142 0 242 102q99 101 99 242zM39 350q0 147 105 254q103 106 252 106t253 -106q105 -107 105 -254t-105 -254q-104 -106 -253 -106t-252 106q-105 107 -105 254zM411 744h-19
l58 75h27z" />
    <glyph glyph-name="Ocircumflex" unicode="&#xd4;" horiz-adv-x="792" 
d="M737 350q0 141 -99 242q-100 102 -242 102q-141 0 -241 -102t-100 -242t100 -242t241 -102q142 0 242 102q99 101 99 242zM39 350q0 147 105 254q103 106 252 106t253 -106q105 -107 105 -254t-105 -254q-104 -106 -253 -106t-252 106q-105 107 -105 254zM341 738h-16
l58 72h27l58 -72h-16l-55 60z" />
    <glyph glyph-name="Otilde" unicode="&#xd5;" horiz-adv-x="792" 
d="M737 350q0 141 -99 242q-100 102 -242 102q-141 0 -241 -102t-100 -242t100 -242t241 -102q142 0 242 102q99 101 99 242zM39 350q0 147 105 254q103 106 252 106t253 -106q105 -107 105 -254t-105 -254q-104 -106 -253 -106t-252 106q-105 107 -105 254zM324 747l-12 3
q7 30 30 39q35 14 67 -20q18 -19 43 -11q21 9 25 29l11 -3q-7 -30 -32 -39q-31 -13 -57 14q-27 28 -54 17q-17 -7 -21 -29z" />
    <glyph glyph-name="Odieresis" unicode="&#xd6;" horiz-adv-x="792" 
d="M737 350q0 -141 -99 -242q-100 -102 -242 -102q-141 0 -241 102t-100 242t100 242t241 102q142 0 242 -102q99 -101 99 -242zM39 350q0 -147 105 -254q103 -106 252 -106t253 106q105 107 105 254t-105 254q-104 106 -253 106t-252 -106q-105 -107 -105 -254zM334 788
q20 0 20 -20q0 -7 -5.5 -12.5t-14.5 -5.5q-7 0 -12.5 5.5t-5.5 12.5q0 20 18 20zM455 788q20 0 20 -20q0 -7 -5.5 -12.5t-14.5 -5.5q-7 0 -12.5 5.5t-5.5 12.5q0 20 18 20z" />
    <glyph glyph-name="Oslash" unicode="&#xd8;" horiz-adv-x="792" 
d="M39 350q0 147 105 254q103 106 252 106q102 0 186 -53l47 74h20l-53 -83q28 -20 53 -44q105 -107 105 -254t-105 -254q-104 -106 -253 -106q-103 0 -187 53l-50 -78h-19l55 87q-30 22 -51 44q-105 107 -105 254zM737 350q0 141 -99 242q-30 28 -51 42l-369 -577
q80 -51 178 -51q142 0 242 102q99 101 99 242zM396 694q-141 0 -241 -102t-100 -242t100 -242q23 -25 49 -42l369 578q-81 50 -177 50z" />
    <glyph glyph-name="Ugrave" unicode="&#xd9;" horiz-adv-x="622" 
d="M311 -8q60 0 114.5 21.5t92.5 68t38 107.5v510h-16v-509q0 -85 -70 -133.5t-159 -48.5t-159 48t-70 133v510h-16v-509q0 -92 75 -145t170 -53zM344 735h-19l-66 75h27z" />
    <glyph glyph-name="Uacute" unicode="&#xda;" horiz-adv-x="622" 
d="M311 -8q-95 0 -170 53t-75 145v509h16v-510q0 -85 70 -133t159 -48t159 48.5t70 133.5v509h16v-510q0 -61 -38 -107.5t-92.5 -68t-114.5 -21.5zM315 735h-19l58 75h27z" />
    <glyph glyph-name="Ucircumflex" unicode="&#xdb;" horiz-adv-x="622" 
d="M311 -8q-95 0 -170 53t-75 145v509h16v-510q0 -85 70 -133t159 -48t159 48.5t70 133.5v509h16v-510q0 -61 -38 -107.5t-92.5 -68t-114.5 -21.5zM257 733h-16l58 72h27l58 -72h-16l-55 60z" />
    <glyph glyph-name="Udieresis" unicode="&#xdc;" horiz-adv-x="622" 
d="M311 -8q60 0 114.5 21.5t92.5 68t38 107.5v510h-16v-509q0 -85 -70 -133.5t-159 -48.5t-159 48t-70 133v510h-16v-509q0 -92 75 -145t170 -53zM260 784q20 0 20 -20q0 -7 -5.5 -12.5t-14.5 -5.5q-7 0 -12.5 5.5t-5.5 12.5q0 20 18 20zM381 784q20 0 20 -20
q0 -7 -5.5 -12.5t-14.5 -5.5q-7 0 -12.5 5.5t-5.5 12.5q0 20 18 20z" />
    <glyph glyph-name="Yacute" unicode="&#xdd;" horiz-adv-x="579" 
d="M24 699h19l246 -394l246 394h19l-257 -410v-289h-16v289zM289 725h-19l58 75h27z" />
    <glyph glyph-name="agrave" unicode="&#xe0;" 
d="M313 689l-170 -439h341zM586 0l-96 235h-354l-95 -235h-17l281 710h17l281 -710h-17zM326 731h-19l-66 75h27z" />
    <glyph glyph-name="aacute" unicode="&#xe1;" 
d="M313 689l-170 -439h341zM586 0l-96 235h-354l-95 -235h-17l281 710h17l281 -710h-17zM321 729h-19l58 75h27z" />
    <glyph glyph-name="acircumflex" unicode="&#xe2;" 
d="M313 689l-170 -439h341zM586 0l-96 235h-354l-95 -235h-17l281 710h17l281 -710h-17zM258 727h-16l58 72h27l58 -72h-16l-55 60z" />
    <glyph glyph-name="atilde" unicode="&#xe3;" 
d="M313 689l-170 -439h341zM586 0l-96 235h-354l-95 -235h-17l281 710h17l281 -710h-17zM238 734l-12 3q7 30 30 39q35 14 67 -20q18 -19 43 -11q21 9 25 29l11 -3q-7 -30 -32 -39q-31 -13 -57 14q-27 28 -54 17q-17 -7 -21 -29z" />
    <glyph glyph-name="adieresis" unicode="&#xe4;" 
d="M313 689l-170 -439h341zM586 0l-96 235h-354l-95 -235h-17l281 710h17l281 -710h-17zM252 784q20 0 20 -20q0 -7 -5.5 -12.5t-14.5 -5.5q-7 0 -12.5 5.5t-5.5 12.5q0 20 18 20zM373 784q20 0 20 -20q0 -7 -5.5 -12.5t-14.5 -5.5q-7 0 -12.5 5.5t-5.5 12.5q0 20 18 20z
" />
    <glyph glyph-name="aring" unicode="&#xe5;" 
d="M313 689l-170 -439h341zM586 0l-96 235h-354l-95 -235h-17l281 710h17l281 -710h-17zM264 752q0 21 14.5 36t35.5 15t36 -15t15 -36q0 -22 -15 -36.5t-37 -14.5q-20 0 -34.5 15t-14.5 36zM282 752q0 -14 9.5 -23.5t22.5 -9.5q14 0 23.5 9.5t9.5 23.5t-9.5 23.5t-23.5 9.5
q-13 0 -22.5 -9.5t-9.5 -23.5z" />
    <glyph glyph-name="ae" unicode="&#xe6;" horiz-adv-x="868" 
d="M467 285v-270h372v-15h-388v285h-249l-161 -285h-17l392 700h421v-15h-370v-385h362v-15h-362zM426 685l-216 -385h241v385h-25z" />
    <glyph glyph-name="ccedilla" unicode="&#xe7;" horiz-adv-x="699" 
d="M374 -1l-23 -49q33 -3 56 -17q30 -18 36 -46q2 -8 2 -12q0 -5 -2 -13q-5 -27 -36 -45q-30 -18 -67 -18q-21 0 -43 8q-44 17 -51 51l14 3q3 -8 4 -10q8 -17 31 -27t45 -10q35 0 60 15t29 36q1 3 1 10q0 6 -1 9q-4 21 -29 36q-23 13 -69 19l27 60q-140 2 -238 103
q-100 103 -100 247q0 143 100 246t242 103t242 -103q47 -48 72 -109h-17q-23 54 -66 98q-95 98 -231 98t-231 -98q-96 -99 -96 -235q0 -137 96 -235q96 -99 231 -99t231 99q44 45 66 97h17q-25 -61 -72 -109q-95 -99 -230 -103z" />
    <glyph glyph-name="egrave" unicode="&#xe8;" horiz-adv-x="480" 
d="M83 15v327h362v16h-362v326h370v15h-386v-699h2h386v15h-372zM286 737h-19l-66 75h27z" />
    <glyph glyph-name="eacute" unicode="&#xe9;" horiz-adv-x="480" 
d="M83 342v-327h372v-15h-386h-2v699h386v-15h-370v-326h362v-16h-362zM265 735h-19l58 75h27z" />
    <glyph glyph-name="ecircumflex" unicode="&#xea;" horiz-adv-x="480" 
d="M83 342v-327h372v-15h-386h-2v699h386v-15h-370v-326h362v-16h-362zM218 733h-16l58 72h27l58 -72h-16l-55 60z" />
    <glyph glyph-name="edieresis" unicode="&#xeb;" horiz-adv-x="480" 
d="M83 15v327h362v16h-362v326h370v15h-386v-699h2h386v15h-372zM212 783q20 0 20 -20q0 -7 -5.5 -12.5t-14.5 -5.5q-7 0 -12.5 5.5t-5.5 12.5q0 20 18 20zM333 783q20 0 20 -20q0 -7 -5.5 -12.5t-14.5 -5.5q-7 0 -12.5 5.5t-5.5 12.5q0 20 18 20z" />
    <glyph glyph-name="igrave" unicode="&#xec;" horiz-adv-x="381" 
d="M347 685v14h-313v-14h149v-670h-149v-15h313v15h-149v670h149zM204 735h-19l-66 75h27z" />
    <glyph glyph-name="iacute" unicode="&#xed;" horiz-adv-x="381" 
d="M347 699v-14h-149v-670h149v-15h-313v15h149v670h-149v14h313zM199 736h-19l58 75h27z" />
    <glyph glyph-name="icircumflex" unicode="&#xee;" horiz-adv-x="381" 
d="M347 699v-14h-149v-670h149v-15h-313v15h149v670h-149v14h313zM136 734h-16l58 72h27l58 -72h-16l-55 60z" />
    <glyph glyph-name="idieresis" unicode="&#xef;" horiz-adv-x="381" 
d="M347 685v14h-313v-14h149v-670h-149v-15h313v15h-149v670h149zM130 784q20 0 20 -20q0 -7 -5.5 -12.5t-14.5 -5.5q-7 0 -12.5 5.5t-5.5 12.5q0 20 18 20zM251 784q20 0 20 -20q0 -7 -5.5 -12.5t-14.5 -5.5q-7 0 -12.5 5.5t-5.5 12.5q0 20 18 20z" />
    <glyph glyph-name="ntilde" unicode="&#xf1;" 
d="M83 0h-16v701l14 -1l465 -672v672h15v-700h-16l-462 668v-668zM244 744l-12 3q7 30 30 39q35 14 67 -20q18 -19 43 -11q21 9 25 29l11 -3q-7 -30 -32 -39q-31 -13 -57 14q-27 28 -54 17q-17 -7 -21 -29z" />
    <glyph glyph-name="ograve" unicode="&#xf2;" horiz-adv-x="792" 
d="M737 350q0 -141 -99 -242q-100 -102 -242 -102q-141 0 -241 102t-100 242t100 242t241 102q142 0 242 -102q99 -101 99 -242zM39 350q0 -147 105 -254q103 -106 252 -106t253 106q105 107 105 254t-105 254q-104 106 -253 106t-252 -106q-105 -107 -105 -254zM423 747
h-19l-66 75h27z" />
    <glyph glyph-name="oacute" unicode="&#xf3;" horiz-adv-x="792" 
d="M737 350q0 141 -99 242q-100 102 -242 102q-141 0 -241 -102t-100 -242t100 -242t241 -102q142 0 242 102q99 101 99 242zM39 350q0 147 105 254q103 106 252 106t253 -106q105 -107 105 -254t-105 -254q-104 -106 -253 -106t-252 106q-105 107 -105 254zM416 745h-19
l58 75h27z" />
    <glyph glyph-name="ocircumflex" unicode="&#xf4;" horiz-adv-x="792" 
d="M737 350q0 141 -99 242q-100 102 -242 102q-141 0 -241 -102t-100 -242t100 -242t241 -102q142 0 242 102q99 101 99 242zM39 350q0 147 105 254q103 106 252 106t253 -106q105 -107 105 -254t-105 -254q-104 -106 -253 -106t-252 106q-105 107 -105 254zM351 744h-16
l58 72h27l58 -72h-16l-55 60z" />
    <glyph glyph-name="otilde" unicode="&#xf5;" horiz-adv-x="792" 
d="M737 350q0 141 -99 242q-100 102 -242 102q-141 0 -241 -102t-100 -242t100 -242t241 -102q142 0 242 102q99 101 99 242zM39 350q0 147 105 254q103 106 252 106t253 -106q105 -107 105 -254t-105 -254q-104 -106 -253 -106t-252 106q-105 107 -105 254zM337 750l-12 3
q7 30 30 39q35 14 67 -20q18 -19 43 -11q21 9 25 29l11 -3q-7 -30 -32 -39q-31 -13 -57 14q-27 28 -54 17q-17 -7 -21 -29z" />
    <glyph glyph-name="odieresis" unicode="&#xf6;" horiz-adv-x="792" 
d="M737 350q0 -141 -99 -242q-100 -102 -242 -102q-141 0 -241 102t-100 242t100 242t241 102q142 0 242 -102q99 -101 99 -242zM39 350q0 -147 105 -254q103 -106 252 -106t253 106q105 107 105 254t-105 254q-104 106 -253 106t-252 -106q-105 -107 -105 -254zM344 794
q20 0 20 -20q0 -7 -5.5 -12.5t-14.5 -5.5q-7 0 -12.5 5.5t-5.5 12.5q0 20 18 20zM465 794q20 0 20 -20q0 -7 -5.5 -12.5t-14.5 -5.5q-7 0 -12.5 5.5t-5.5 12.5q0 20 18 20z" />
    <glyph glyph-name="oslash" unicode="&#xf8;" horiz-adv-x="792" 
d="M39 350q0 147 105 254q103 106 252 106q102 0 186 -53l47 74h20l-53 -83q28 -20 53 -44q105 -107 105 -254t-105 -254q-104 -106 -253 -106q-103 0 -187 53l-50 -78h-19l55 87q-30 22 -51 44q-105 107 -105 254zM737 350q0 141 -99 242q-30 28 -51 42l-369 -577
q80 -51 178 -51q142 0 242 102q99 101 99 242zM396 694q-141 0 -241 -102t-100 -242t100 -242q23 -25 49 -42l369 578q-81 50 -177 50z" />
    <glyph glyph-name="ugrave" unicode="&#xf9;" horiz-adv-x="622" 
d="M311 -8q60 0 114.5 21.5t92.5 68t38 107.5v510h-16v-509q0 -85 -70 -133.5t-159 -48.5t-159 48t-70 133v510h-16v-509q0 -92 75 -145t170 -53zM335 736h-19l-66 75h27z" />
    <glyph glyph-name="uacute" unicode="&#xfa;" horiz-adv-x="622" 
d="M311 -8q-95 0 -170 53t-75 145v509h16v-510q0 -85 70 -133t159 -48t159 48.5t70 133.5v509h16v-510q0 -61 -38 -107.5t-92.5 -68t-114.5 -21.5zM320 734h-19l58 75h27z" />
    <glyph glyph-name="ucircumflex" unicode="&#xfb;" horiz-adv-x="622" 
d="M311 -8q-95 0 -170 53t-75 145v509h16v-510q0 -85 70 -133t159 -48t159 48.5t70 133.5v509h16v-510q0 -61 -38 -107.5t-92.5 -68t-114.5 -21.5zM255 740h-16l58 72h27l58 -72h-16l-55 60z" />
    <glyph glyph-name="udieresis" unicode="&#xfc;" horiz-adv-x="622" 
d="M311 -8q60 0 114.5 21.5t92.5 68t38 107.5v510h-16v-509q0 -85 -70 -133.5t-159 -48.5t-159 48t-70 133v510h-16v-509q0 -92 75 -145t170 -53zM251 784q20 0 20 -20q0 -7 -5.5 -12.5t-14.5 -5.5q-7 0 -12.5 5.5t-5.5 12.5q0 20 18 20zM372 784q20 0 20 -20
q0 -7 -5.5 -12.5t-14.5 -5.5q-7 0 -12.5 5.5t-5.5 12.5q0 20 18 20z" />
    <glyph glyph-name="yacute" unicode="&#xfd;" horiz-adv-x="579" 
d="M24 699h19l246 -394l246 394h19l-257 -410v-289h-16v289zM288 735h-19l58 75h27z" />
    <glyph glyph-name="ydieresis" unicode="&#xff;" horiz-adv-x="579" 
d="M43 699h-19l257 -410v-289h16v289l257 410h-19l-246 -394zM230 784q20 0 20 -20q0 -7 -5.5 -12.5t-14.5 -5.5q-7 0 -12.5 5.5t-5.5 12.5q0 20 18 20zM351 784q20 0 20 -20q0 -7 -5.5 -12.5t-14.5 -5.5q-7 0 -12.5 5.5t-5.5 12.5q0 20 18 20z" />
    <glyph glyph-name="OE" unicode="&#x152;" horiz-adv-x="869" 
d="M471 342v-329h372v-15h-379q-33 -6 -68 -6q-158 0 -252 97q-49 49 -77 118.5t-28 142.5q0 74 28.5 144t76.5 119q92 95 252 95q28 0 60 -5h385v-15h-370v-330h362v-16h-362zM396 692q-151 0 -241 -91q-46 -47 -73 -113.5t-27 -137.5q0 -70 27 -136t73 -113
q92 -93 241 -93q32 0 59 4v675q-32 5 -59 5z" />
    <glyph glyph-name="oe" unicode="&#x153;" horiz-adv-x="869" 
d="M471 342v-329h372v-15h-379q-33 -6 -68 -6q-158 0 -252 97q-49 49 -77 118.5t-28 142.5q0 74 28.5 144t76.5 119q92 95 252 95q28 0 60 -5h385v-15h-370v-330h362v-16h-362zM396 692q-151 0 -241 -91q-46 -47 -73 -113.5t-27 -137.5q0 -70 27 -136t73 -113
q92 -93 241 -93q32 0 59 4v675q-32 5 -59 5z" />
    <glyph glyph-name="Scaron" unicode="&#x160;" horiz-adv-x="565" 
d="M340 812h16l-58 -72h-27l-58 72h16l55 -60zM491 545l-1 8q-9 44 -38 76q-62 66 -175 64q-54 -1 -103.5 -21t-79.5 -59q-36 -44 -31 -107q4 -50 28.5 -80.5t62 -42.5t82 -18t90.5 -10.5t86 -15t69.5 -38t39.5 -72.5q12 -53 -5 -99t-53.5 -75t-84 -45.5t-98.5 -16.5
q-85 0 -157.5 46t-80.5 125l-1 7l16 2l1 -7q8 -74 76 -116t147 -42q101 0 173 60t52 158q-9 42 -38.5 67t-69 34t-86 13.5t-91 11t-82.5 20t-62.5 47t-28.5 86.5q-6 66 33 117q50 65 145 82.5t179 -22.5t100 -126l1 -8z" />
    <glyph glyph-name="scaron" unicode="&#x161;" horiz-adv-x="567" 
d="M340 812h16l-58 -72h-27l-58 72h16l55 -60zM491 545l-1 8q-9 44 -38 76q-62 66 -175 64q-54 -1 -103.5 -21t-79.5 -59q-36 -44 -31 -107q4 -50 28.5 -80.5t62 -42.5t82 -18t90.5 -10.5t86 -15t69.5 -38t39.5 -72.5q12 -53 -5 -99t-53.5 -75t-84 -45.5t-98.5 -16.5
q-85 0 -157.5 46t-80.5 125l-1 7l16 2l1 -7q8 -74 76 -116t147 -42q101 0 173 60t52 158q-9 42 -38.5 67t-69 34t-86 13.5t-91 11t-82.5 20t-62.5 47t-28.5 86.5q-6 66 33 117q50 65 145 82.5t179 -22.5t100 -126l1 -8z" />
    <glyph glyph-name="Ydieresis" unicode="&#x178;" horiz-adv-x="579" 
d="M43 699h-19l257 -410v-289h16v289l257 410h-19l-246 -394zM228 784q20 0 20 -20q0 -7 -5.5 -12.5t-14.5 -5.5q-7 0 -12.5 5.5t-5.5 12.5q0 20 18 20zM349 784q20 0 20 -20q0 -7 -5.5 -12.5t-14.5 -5.5q-7 0 -12.5 5.5t-5.5 12.5q0 20 18 20z" />
    <glyph glyph-name="Zcaron" unicode="&#x17d;" horiz-adv-x="568" 
d="M353 812h16l-58 -72h-27l-58 72h16l55 -60zM40 683v16h494l11 -18l-507 -666h509v-15h-520l-9 14l508 669h-486z" />
    <glyph glyph-name="zcaron" unicode="&#x17e;" horiz-adv-x="568" 
d="M366 812h16l-58 -72h-27l-58 72h16l55 -60zM40 683v16h494l11 -18l-507 -666h509v-15h-520l-9 14l508 669h-486z" />
    <glyph glyph-name="circumflex" unicode="&#x2c6;" horiz-adv-x="352" 
d="M124 721h-16l58 72h27l58 -72h-16l-55 60z" />
    <glyph glyph-name="ring" unicode="&#x2da;" horiz-adv-x="319" 
d="M109 787q0 21 14.5 36t35.5 15t36 -15t15 -36q0 -22 -15 -36.5t-37 -14.5q-20 0 -34.5 15t-14.5 36zM127 787q0 -14 9.5 -23.5t22.5 -9.5t23 10t10 23t-10 23t-23 10t-22.5 -9.5t-9.5 -23.5z" />
    <glyph glyph-name="tilde" unicode="&#x2dc;" horiz-adv-x="388" 
d="M117 728l-12 3q7 30 30 39q35 14 67 -20q18 -19 43 -11q21 9 25 29l11 -3q-7 -30 -32 -39q-31 -13 -57 14q-27 28 -54 17q-17 -7 -21 -29z" />
    <glyph glyph-name="uni03A9" unicode="&#x3a9;" horiz-adv-x="704" 
 />
    <glyph glyph-name="pi" unicode="&#x3c0;" horiz-adv-x="643" 
 />
    <glyph glyph-name="ellipsis" unicode="&#x2026;" horiz-adv-x="430" 
d="M86 36q20 0 20 -20q0 -7 -5.5 -12.5t-14.5 -5.5q-7 0 -12.5 5.5t-5.5 12.5q0 20 18 20zM203 36q20 0 20 -20q0 -7 -5.5 -12.5t-14.5 -5.5q-7 0 -12.5 5.5t-5.5 12.5q0 20 18 20zM318 36q20 0 20 -20q0 -7 -5.5 -12.5t-14.5 -5.5q-7 0 -12.5 5.5t-5.5 12.5q0 20 18 20z
" />
    <glyph glyph-name="fraction" unicode="&#x2044;" horiz-adv-x="326" 
 />
    <glyph glyph-name="Euro" unicode="&#x20ac;" horiz-adv-x="745" 
d="M11 315v16h46v18v21h-46v16h48q12 120 98 209q100 103 242 103t242 -103q47 -48 72 -109h-17q-23 54 -66 98q-95 98 -231 98t-231 -98q-82 -85 -94 -198h182v-16h-184v-21v-18h184v-16h-183q12 -118 95 -201q96 -99 231 -99t231 99q44 45 66 97h17q-25 -61 -72 -109
q-100 -103 -242 -103t-242 103q-87 89 -99 213h-47z" />
    <glyph glyph-name="litre" unicode="&#x2113;" horiz-adv-x="489" 
 />
    <glyph glyph-name="Omega" unicode="&#x2126;" horiz-adv-x="704" 
 />
    <glyph glyph-name="estimated" unicode="&#x212e;" horiz-adv-x="697" 
d="M641 295h-456v-203q68 -66 162 -66q137 0 219 134q6 -4 18 -11.5t18 -10.5q-50 -75 -108.5 -112.5t-146.5 -37.5q-129 0 -208.5 88.5t-79.5 219.5t78.5 219t210.5 88q133 0 211 -87.5t82 -220.5zM511 333v166q-70 67 -163 67q-97 0 -163 -66v-167h326z" />
    <glyph glyph-name="partialdiff" unicode="&#x2202;" horiz-adv-x="570" 
 />
    <glyph glyph-name="Delta" unicode="&#x2206;" horiz-adv-x="601" 
 />
    <glyph glyph-name="product" unicode="&#x220f;" horiz-adv-x="711" 
 />
    <glyph glyph-name="summation" unicode="&#x2211;" horiz-adv-x="624" 
 />
    <glyph glyph-name="minus" unicode="&#x2212;" horiz-adv-x="494" 
 />
    <glyph glyph-name="uni2215" unicode="&#x2215;" horiz-adv-x="326" 
 />
    <glyph glyph-name="uni2219" unicode="&#x2219;" horiz-adv-x="165" 
 />
    <glyph glyph-name="radical" unicode="&#x221a;" horiz-adv-x="505" 
 />
    <glyph glyph-name="infinity" unicode="&#x221e;" horiz-adv-x="774" 
 />
    <glyph glyph-name="integral" unicode="&#x222b;" horiz-adv-x="486" 
 />
    <glyph glyph-name="approxequal" unicode="&#x2248;" horiz-adv-x="494" 
 />
    <glyph glyph-name="notequal" unicode="&#x2260;" horiz-adv-x="494" 
 />
    <glyph glyph-name="lessequal" unicode="&#x2264;" horiz-adv-x="494" 
 />
    <glyph glyph-name="greaterequal" unicode="&#x2265;" horiz-adv-x="494" 
 />
    <glyph glyph-name="lozenge" unicode="&#x25ca;" horiz-adv-x="593" 
d="M515 350q-34 -59 -102 -175t-102 -175h-32q-34 58 -102 174.5t-102 174.5l204 351h32q34 -59 102 -175.5t102 -174.5zM496 350q-38 65 -108 184.5t-93 158.5q-29 -49 -97 -165t-105 -178q54 -92 201 -343q125 210 202 343z" />
    <glyph glyph-name="E.alt" unicode="&#xe000;" horiz-adv-x="480" 
d="M83 212v-197h372v-15h-386h-2v699h386v-15h-370v-456h362v-16h-362z" />
    <glyph glyph-name="Eacute.alt" unicode="&#xe001;" horiz-adv-x="480" 
d="M83 212v-197h372v-15h-386h-2v699h386v-15h-370v-456h362v-16h-362zM262 735h-19l58 75h27z" />
    <glyph glyph-name="Egrave.alt" unicode="&#xe002;" horiz-adv-x="480" 
d="M83 15v197h362v16h-362v456h370v15h-386v-699h2h386v15h-372zM288 737h-19l-66 75h27z" />
    <glyph glyph-name="Ecircumflex.alt" unicode="&#xe003;" horiz-adv-x="480" 
d="M83 212v-197h372v-15h-386h-2v699h386v-15h-370v-456h362v-16h-362zM218 733h-16l58 72h27l58 -72h-16l-55 60z" />
    <glyph glyph-name="Edieresis.alt" unicode="&#xe004;" horiz-adv-x="480" 
d="M83 15v197h362v16h-362v456h370v15h-386v-699h2h386v15h-372zM212 783q20 0 20 -20q0 -7 -5.5 -12.5t-14.5 -5.5q-7 0 -12.5 5.5t-5.5 12.5q0 20 18 20zM333 783q20 0 20 -20q0 -7 -5.5 -12.5t-14.5 -5.5q-7 0 -12.5 5.5t-5.5 12.5q0 20 18 20z" />
    <glyph glyph-name="F.alt" unicode="&#xe005;" horiz-adv-x="464" 
d="M82 212v-212h-15v699h377v-15h-362v-456h320v-16h-320z" />
    <glyph glyph-name="H.alt" unicode="&#xe006;" horiz-adv-x="603" 
d="M82 699v-472h439v472h16v-699h-16v212h-439v-212h-15v699h15z" />
    <glyph glyph-name="N.alt" unicode="&#xe007;" 
d="M546 392v308h15v-700h-15v373l-463 308v-681h-16v701l14 -1z" />
    <glyph glyph-name="Ntilde.alt" unicode="&#xe008;" 
d="M546 392v308h15v-700h-15v373l-463 308v-681h-16v701l14 -1zM242 742l-12 3q7 30 30 39q35 14 67 -20q18 -19 43 -11q21 9 25 29l11 -3q-7 -30 -32 -39q-31 -13 -57 14q-27 28 -54 17q-17 -7 -21 -29z" />
    <glyph glyph-name="U.alt" unicode="&#xe009;" horiz-adv-x="621" 
d="M66 53v646h16v-642q0 -29 68 -46t160 -17q93 0 161.5 16.5t68.5 46.5v642h16v-647q0 -45 -122.5 -64.5t-245 -0.5t-122.5 66z" />
    <glyph glyph-name="Uacute.alt" unicode="&#xe00a;" horiz-adv-x="621" 
d="M66 53v646h16v-642q0 -29 68 -46t160 -17q93 0 161.5 16.5t68.5 46.5v642h16v-647q0 -45 -122.5 -64.5t-245 -0.5t-122.5 66zM304 735h-19l58 75h27z" />
    <glyph glyph-name="Ugrave.alt" unicode="&#xe00b;" horiz-adv-x="624" 
d="M67 699v-646q0 -47 122.5 -66t245 0.5t122.5 64.5v647h-16v-642q0 -30 -68.5 -46.5t-161.5 -16.5q-92 0 -160 17t-68 46v642h-16zM342 735h-19l-66 75h27z" />
    <glyph glyph-name="Ucircumflex.alt" unicode="&#xe00c;" horiz-adv-x="623" 
d="M67 53v646h16v-642q0 -29 68 -46t160 -17q93 0 161.5 16.5t68.5 46.5v642h16v-647q0 -45 -122.5 -64.5t-245 -0.5t-122.5 66zM263 733h-16l58 72h27l58 -72h-16l-55 60z" />
    <glyph glyph-name="Udieresis.alt" unicode="&#xe00d;" horiz-adv-x="622" 
d="M67 699v-646q0 -47 122.5 -66t245 0.5t122.5 64.5v647h-16v-642q0 -30 -68.5 -46.5t-161.5 -16.5q-92 0 -160 17t-68 46v642h-16zM262 784q20 0 20 -20q0 -7 -5.5 -12.5t-14.5 -5.5q-7 0 -12.5 5.5t-5.5 12.5q0 20 18 20zM383 784q20 0 20 -20q0 -7 -5.5 -12.5
t-14.5 -5.5q-7 0 -12.5 5.5t-5.5 12.5q0 20 18 20z" />
    <glyph glyph-name="Y.alt" unicode="&#xe00e;" horiz-adv-x="580" 
d="M24 699h19l252 -502l240 502h19l-339 -699h-16l87 181z" />
    <glyph glyph-name="Ydieresis.alt" unicode="&#xe00f;" horiz-adv-x="580" 
d="M43 699h-19l262 -518l-87 -181h16l339 699h-19l-240 -502zM234 784q20 0 20 -20q0 -7 -5.5 -12.5t-14.5 -5.5q-7 0 -12.5 5.5t-5.5 12.5q0 20 18 20zM355 784q20 0 20 -20q0 -7 -5.5 -12.5t-14.5 -5.5q-7 0 -12.5 5.5t-5.5 12.5q0 20 18 20z" />
    <glyph glyph-name="seven.alt" unicode="&#xe010;" horiz-adv-x="372" 
 />
    <glyph glyph-name="nine.alt" unicode="&#xe011;" horiz-adv-x="423" 
 />
    <glyph glyph-name="CR" horiz-adv-x="352" 
 />
    </font>
</defs>
</svg>
